<svg xmlns="http://www.w3.org/2000/svg" xmlns:xlink="http://www.w3.org/1999/xlink" xmlns:s="https://github.com/nturley/netlistsvg" width="373" height="341.5">
  <style>svg {
    stroke:#000;
    fill:none;
  }
  text {
    fill:#000;
    stroke:none;
    font-size:10px;
    font-weight: bold;
    font-family: "Courier New", monospace;
  }
  .nodelabel {
    text-anchor: middle;
  }
  .inputPortLabel {
    text-anchor: end;
  }
  .splitjoinBody {
    fill:#000;
  }</style>
  <g s:type="and" transform="translate(254,46)" s:width="30" s:height="25" id="cell_$and$synth/verilog/RCAsx.v:32$1">
    <s:alias val="$and"/>
    <s:alias val="$logic_and"/>
    <s:alias val="$_AND_"/>
    <path d="M0,0 L0,25 L15,25 A15 12.5 0 0 0 15,0 Z" class="cell_$and$synth/verilog/RCAsx.v:32$1"/>
    <g s:x="0" s:y="5" s:pid="A"/>
    <g s:x="0" s:y="20" s:pid="B"/>
    <g s:x="30" s:y="12.5" s:pid="Y"/>
  </g>
  <g s:type="and" transform="translate(254,147)" s:width="30" s:height="25" id="cell_$and$synth/verilog/RCAsx.v:48$3">
    <s:alias val="$and"/>
    <s:alias val="$logic_and"/>
    <s:alias val="$_AND_"/>
    <path d="M0,0 L0,25 L15,25 A15 12.5 0 0 0 15,0 Z" class="cell_$and$synth/verilog/RCAsx.v:48$3"/>
    <g s:x="0" s:y="5" s:pid="A"/>
    <g s:x="0" s:y="20" s:pid="B"/>
    <g s:x="30" s:y="12.5" s:pid="Y"/>
  </g>
  <g s:type="or" transform="translate(321,139.5)" s:width="30" s:height="25" id="cell_$or$synth/verilog/RCAsx.v:50$4">
    <s:alias val="$or"/>
    <s:alias val="$logic_or"/>
    <s:alias val="$_OR_"/>
    <path d="M0,25 L0,25 L15,25 A15 12.5 0 0 0 15,0 L0,0" class="cell_$or$synth/verilog/RCAsx.v:50$4"/>
    <path d="M0,0 A30 25 0 0 1 0,25" class="cell_$or$synth/verilog/RCAsx.v:50$4"/>
    <g s:x="3" s:y="5" s:pid="A"/>
    <g s:x="3" s:y="20" s:pid="B"/>
    <g s:x="30" s:y="12.5" s:pid="Y"/>
  </g>
  <g s:type="reduce_xor" transform="translate(77,77)" s:width="33" s:height="25" id="cell_$xor$synth/verilog/RCAsx.v:38$2">
    <s:alias val="$xor"/>
    <s:alias val="$reduce_xor"/>
    <s:alias val="$_XOR_"/>
    <path d="M3,0 A30 25 0 0 1 3,25 A30 25 0 0 0 33,12.5 A30 25 0 0 0 3,0" class="cell_$xor$synth/verilog/RCAsx.v:38$2"/>
    <path d="M0,0 A30 25 0 0 1 0,25" class="cell_$xor$synth/verilog/RCAsx.v:38$2"/>
    <g s:x="3" s:y="5" s:pid="A"/>
    <g s:x="3" s:y="20" s:pid="B"/>
    <g s:x="33" s:y="12.5" s:pid="Y"/>
  </g>
  <g s:type="reduce_xor" transform="translate(253,279)" s:width="33" s:height="25" id="cell_$xor$synth/verilog/RCAsx.v:52$5">
    <s:alias val="$xor"/>
    <s:alias val="$reduce_xor"/>
    <s:alias val="$_XOR_"/>
    <path d="M3,0 A30 25 0 0 1 3,25 A30 25 0 0 0 33,12.5 A30 25 0 0 0 3,0" class="cell_$xor$synth/verilog/RCAsx.v:52$5"/>
    <path d="M0,0 A30 25 0 0 1 0,25" class="cell_$xor$synth/verilog/RCAsx.v:52$5"/>
    <g s:x="3" s:y="5" s:pid="A"/>
    <g s:x="3" s:y="20" s:pid="B"/>
    <g s:x="33" s:y="12.5" s:pid="Y"/>
  </g>
  <g s:type="inputExt" transform="translate(12,22)" s:width="30" s:height="20" id="cell_a">
    <text x="15" y="-4" class="nodelabel cell_a" s:attribute="ref">a</text>
    <s:alias val="$_inputExt_"/>
    <path d="M0,0 L0,20 L15,20 L30,10 L15,0 Z" class="cell_a"/>
    <g s:x="28" s:y="10" s:pid="Y"/>
  </g>
  <g s:type="inputExt" transform="translate(12,87)" s:width="30" s:height="20" id="cell_b">
    <text x="15" y="-4" class="nodelabel cell_b" s:attribute="ref">b</text>
    <s:alias val="$_inputExt_"/>
    <path d="M0,0 L0,20 L15,20 L30,10 L15,0 Z" class="cell_b"/>
    <g s:x="28" s:y="10" s:pid="Y"/>
  </g>
  <g s:type="inputExt" transform="translate(77,147)" s:width="30" s:height="20" id="cell_ci">
    <text x="15" y="-4" class="nodelabel cell_ci" s:attribute="ref">ci</text>
    <s:alias val="$_inputExt_"/>
    <path d="M0,0 L0,20 L15,20 L30,10 L15,0 Z" class="cell_ci"/>
    <g s:x="28" s:y="10" s:pid="Y"/>
  </g>
  <g s:type="outputExt" transform="translate(321,281.5)" s:width="30" s:height="20" id="cell_s">
    <text x="15" y="-4" class="nodelabel cell_s" s:attribute="ref">s</text>
    <s:alias val="$_outputExt_"/>
    <path d="M30,0 L30,20 L15,20 L0,10 L15,0 Z" class="cell_s"/>
    <g s:x="0" s:y="10" s:pid="A"/>
  </g>
  <g s:type="join" transform="translate(152,146.5)" s:width="4" s:height="40" id="cell_$join$,18,44,45,46,47,48,49,50,">
    <rect width="5" height="40" class="splitjoinBody" s:generic="body"/>
    <s:alias val="$_join_"/>
    <g s:x="5" s:y="20" s:pid="out"/>
    <g transform="translate(0,10)" s:x="0" s:y="10" s:pid="in0">
      <text x="-3" y="-4" class="inputPortLabel">0</text>
    </g>
    <g transform="translate(0,30)" s:x="0" s:y="10" s:pid="in0">
      <text x="-3" y="-4" class="inputPortLabel">1:7</text>
    </g>
  </g>
  <g s:type="join" transform="translate(212,201.5)" s:width="4" s:height="40" id="cell_$join$,36,37,38,39,40,41,42,43,43,">
    <rect width="5" height="40" class="splitjoinBody" s:generic="body"/>
    <s:alias val="$_join_"/>
    <g s:x="5" s:y="20" s:pid="out"/>
    <g transform="translate(0,10)" s:x="0" s:y="10" s:pid="in0">
      <text x="-3" y="-4" class="inputPortLabel">0:7</text>
    </g>
    <g transform="translate(0,30)" s:x="0" s:y="10" s:pid="in0">
      <text x="-3" y="-4" class="inputPortLabel">8</text>
    </g>
  </g>
  <g s:type="join" transform="translate(212,278.5)" s:width="4" s:height="40" id="cell_$join$,18,44,45,46,47,48,49,50,59,">
    <rect width="5" height="40" class="splitjoinBody" s:generic="body"/>
    <s:alias val="$_join_"/>
    <g s:x="5" s:y="20" s:pid="out"/>
    <g transform="translate(0,10)" s:x="0" s:y="10" s:pid="in0">
      <text x="-3" y="-4" class="inputPortLabel">0:7</text>
    </g>
    <g transform="translate(0,30)" s:x="0" s:y="10" s:pid="in0">
      <text x="-3" y="-4" class="inputPortLabel">8</text>
    </g>
  </g>
  <g s:type="split" transform="translate(86,278.5)" s:width="5" s:height="40" id="cell_$split$,44,45,46,47,48,49,50,59,">
    <rect width="5" height="40" class="splitjoinBody" s:generic="body"/>
    <s:alias val="$_split_"/>
    <g s:x="0" s:y="20" s:pid="in"/>
    <g transform="translate(4,10)" s:x="4" s:y="10" s:pid="out0">
      <text x="5" y="-4">0:6</text>
    </g>
    <g transform="translate(4,30)" s:x="4" s:y="10" s:pid="out0">
      <text x="5" y="-4">7</text>
    </g>
  </g>
  <g s:type="split" transform="translate(146,221.5)" s:width="5" s:height="40" id="cell_$split$,36,37,38,39,40,41,42,43,">
    <rect width="5" height="20" class="splitjoinBody" s:generic="body"/>
    <s:alias val="$_split_"/>
    <g s:x="0" s:y="20" s:pid="in"/>
    <g transform="translate(4,10)" s:x="4" s:y="10" s:pid="out0">
      <text x="5" y="-4">7</text>
    </g>
  </g>
  <line x1="40" x2="228" y1="32" y2="32" class="net_2,3,4,5,6,7,8,9"/>
  <line x1="228" x2="228" y1="32" y2="51" class="net_2,3,4,5,6,7,8,9"/>
  <line x1="228" x2="254" y1="51" y2="51" class="net_2,3,4,5,6,7,8,9"/>
  <line x1="40" x2="62" y1="32" y2="32" class="net_2,3,4,5,6,7,8,9"/>
  <line x1="62" x2="62" y1="32" y2="82" class="net_2,3,4,5,6,7,8,9"/>
  <circle cx="62" cy="32" r="2" style="fill:#000" class="net_2,3,4,5,6,7,8,9"/>
  <line x1="62" x2="80" y1="82" y2="82" class="net_2,3,4,5,6,7,8,9"/>
  <line x1="40" x2="52" y1="97" y2="97" class="net_10,11,12,13,14,15,16,17"/>
  <line x1="52" x2="52" y1="97" y2="66" class="net_10,11,12,13,14,15,16,17"/>
  <circle cx="52" cy="97" r="2" style="fill:#000" class="net_10,11,12,13,14,15,16,17"/>
  <line x1="52" x2="254" y1="66" y2="66" class="net_10,11,12,13,14,15,16,17"/>
  <line x1="40" x2="80" y1="97" y2="97" class="net_10,11,12,13,14,15,16,17"/>
  <line x1="110" x2="228" y1="89.5" y2="89.5" class="net_36,37,38,39,40,41,42,43"/>
  <line x1="228" x2="228" y1="89.5" y2="152" class="net_36,37,38,39,40,41,42,43"/>
  <line x1="228" x2="254" y1="152" y2="152" class="net_36,37,38,39,40,41,42,43"/>
  <line x1="110" x2="178" y1="89.5" y2="89.5" class="net_36,37,38,39,40,41,42,43"/>
  <line x1="178" x2="178" y1="89.5" y2="212" class="net_36,37,38,39,40,41,42,43"/>
  <circle cx="178" cy="89.5" r="2" style="fill:#000" class="net_36,37,38,39,40,41,42,43"/>
  <line x1="178" x2="212" y1="212" y2="212" class="net_36,37,38,39,40,41,42,43"/>
  <line x1="110" x2="130" y1="89.5" y2="89.5" class="net_36,37,38,39,40,41,42,43"/>
  <line x1="130" x2="130" y1="89.5" y2="254.5" class="net_36,37,38,39,40,41,42,43"/>
  <line x1="130" x2="146.5" y1="254.5" y2="254.5" class="net_36,37,38,39,40,41,42,43"/>
  <circle cx="130" cy="89.5" r="2" style="fill:#000" class="net_36,37,38,39,40,41,42,43"/>
  <line x1="146.5" x2="146.5" y1="254.5" y2="242.5" class="net_36,37,38,39,40,41,42,43"/>
  <line x1="158" x2="254" y1="167" y2="167" class="net_18,44,45,46,47,48,49,50"/>
  <line x1="158" x2="168" y1="167" y2="167" class="net_18,44,45,46,47,48,49,50"/>
  <line x1="168" x2="168" y1="167" y2="289" class="net_18,44,45,46,47,48,49,50"/>
  <circle cx="168" cy="167" r="2" style="fill:#000" class="net_18,44,45,46,47,48,49,50"/>
  <line x1="168" x2="212" y1="289" y2="289" class="net_18,44,45,46,47,48,49,50"/>
  <line x1="284" x2="296" y1="58.5" y2="58.5" class="net_28,29,30,31,32,33,34,35"/>
  <line x1="296" x2="296" y1="58.5" y2="144.5" class="net_28,29,30,31,32,33,34,35"/>
  <line x1="296" x2="324" y1="144.5" y2="144.5" class="net_28,29,30,31,32,33,34,35"/>
  <line x1="284" x2="324" y1="159.5" y2="159.5" class="net_51,52,53,54,55,56,57,58"/>
  <line x1="218" x2="228" y1="222" y2="222" class="net_36,37,38,39,40,41,42,43,43"/>
  <line x1="228" x2="228" y1="222" y2="284" class="net_36,37,38,39,40,41,42,43,43"/>
  <line x1="228" x2="256" y1="284" y2="284" class="net_36,37,38,39,40,41,42,43,43"/>
  <line x1="218" x2="256" y1="299" y2="299" class="net_18,44,45,46,47,48,49,50,59"/>
  <line x1="286" x2="321" y1="291.5" y2="291.5" class="net_19,20,21,22,23,24,25,26,27"/>
  <line x1="105" x2="152" y1="157" y2="157" class="net_18"/>
  <line x1="91" x2="120" y1="289" y2="289" class="net_44,45,46,47,48,49,50"/>
  <line x1="120" x2="120" y1="289" y2="177" class="net_44,45,46,47,48,49,50"/>
  <line x1="120" x2="152" y1="177" y2="177" class="net_44,45,46,47,48,49,50"/>
  <line x1="151" x2="212" y1="232" y2="232" class="net_43"/>
  <line x1="91" x2="212" y1="309" y2="309" class="net_59"/>
  <line x1="351" x2="361" y1="152" y2="152" class="net_44,45,46,47,48,49,50,59"/>
  <line x1="361" x2="361" y1="152" y2="328.5" class="net_44,45,46,47,48,49,50,59"/>
  <line x1="361" x2="62" y1="328.5" y2="328.5" class="net_44,45,46,47,48,49,50,59"/>
  <line x1="62" x2="62" y1="328.5" y2="299" class="net_44,45,46,47,48,49,50,59"/>
  <line x1="62" x2="86" y1="299" y2="299" class="net_44,45,46,47,48,49,50,59"/>
</svg>
